<?xml version="1.0" encoding="utf-8"?>
<!-- Generator: Adobe Illustrator 16.0.0, SVG Export Plug-In . SVG Version: 6.00 Build 0)  -->
<!DOCTYPE svg PUBLIC "-//W3C//DTD SVG 1.1//EN" "http://www.w3.org/Graphics/SVG/1.1/DTD/svg11.dtd">
<svg version="1.1" id="Layer_1" xmlns="http://www.w3.org/2000/svg" xmlns:xlink="http://www.w3.org/1999/xlink" x="0px" y="0px"
	 width="87px" height="91px" viewBox="0 0 87 91" enable-background="new 0 0 87 91" xml:space="preserve">
<polygon fill="#444444" points="86.105,11.74 69.621,75.557 25.271,90.117 1.595,76.373 8.891,11.114 62.96,1.397 "/>
<g>
	<path fill="#FFFFFF" d="M23.724,86.119l-0.091-0.056L3.891,74.046l9.723-60.135l50.663-9l0.076,0.043l18.176,10.335L68.092,73.282
		L23.724,86.119z M4.422,73.801l19.372,11.792l43.893-12.7l14.28-57.364L64.188,5.419l-50.149,8.91L4.422,73.801z"/>
</g>
<path fill="#FFFFFF" d="M57.294,41.792c0,0-0.868,17.51-1.846,19.14c-0.61,0.407-1.255-0.078-1.954-0.867
	c-0.644-1.104,0.773-13.579,0.565-19.776l-0.633-14.214c-0.074-4.374-0.578-7.087,2.056-6.559
	c1.775,0.127,1.211,11.624,1.211,11.624s2.085-6.521,9.46-8.75c2.703-0.16,3.839,0.486,3.858,3.75
	C70.094,30.263,65.914,39.673,57.294,41.792z M57.406,38.415c1.465,1.258,10.758-6.867,10.27-12.492
	C64.335,23.067,56.343,34.564,57.406,38.415z"/>
<path fill="#FFFFFF" d="M31.235,27.465c-1.192-3.689-4.55-4.795-6.975-4.205c-2.076,0.601-3.368,3.31-3.399,5.295
	c-0.054,3.989,0.457,11.229,1.087,18.115c-2.478,1.037-4.728,2.157-4.666,2.714c-0.138,0.64,0.871,1.102,1.458,1.094
	c0.493,0.028,1.87-0.335,3.485-0.887c0.75,7.663,1.56,13.768,1.819,14.224c0.497,1.331,1.979,2.264,2.509,0.645
	c0.365-1.642-0.262-2.699-0.652-5.282c-0.25-2.691-0.715-6.478-1.167-10.526c1.431-0.584,2.803-1.231,3.727-1.819
	c0.688-0.364,1.094-2.43-0.567-2.349c-0.615,0.17-1.956,0.629-3.482,1.208c-0.911-8.648-1.535-17.564,0.198-19.071
	c1.201-0.851,3.685-0.013,4.198,2.989c0.604,3.547-0.992,5.581-0.517,6.998c0.333,0.993,1.176,1.462,1.688,1.109
	C31.192,36.311,32.445,31.208,31.235,27.465z"/>
<g>
	<path fill="#FFFFFF" d="M43.131,58.904c-1.905-0.177-3.88-1.301-4.722-3.744c2.938-7.824,4.546-15.037,4.559-21.756
		c-0.243-5.347-3.002-6.026-5.063-5.023c-4.956,2.922-7.047,17.983-2.552,27.137c-1.492,5.892-2.658,7.558-5.731,12.172
		c-3.22,3.706-5.867,1.554-6.214,2.774c-0.097,0.761,0.447,2.018,0.922,2.211c6.42,1.216,10.74-7.857,12.658-14.188
		c0.472,1.241,4.61,3.359,6.123,3.096C44.621,61.32,44.199,58.982,43.131,58.904z M39.889,30.69
		c1.661,1.094-0.468,14.248-2.835,21.953C34.3,46.891,35.637,31.378,39.889,30.69z"/>
	<path fill="#08B04B" d="M50.464,39.318c0.146,1.425-1.321,3.07-2.523,3.194s-1.686-1.32-1.832-2.746s0.999-3.037,2.201-3.161
		C49.513,36.482,50.317,37.893,50.464,39.318z"/>
	<g>
		<path fill="#08B04B" d="M46.37,61.067c-1.581,0.671-3.17,0.733-4.296,0.445c-0.792-0.222-1.092-0.862-1.061-1.368
			c0.028-0.447,0.332-1.223,0.835-1.407c0.117-0.036,0.299-0.002,0.378,0.014c0.379,0.07,0.707,0.119,1,0.167
			c0.836,0.136,1.4,0.122,2.161-0.434c-2.056-7.099-0.841-9.022,0.607-10.602c0.951-0.835,2.155-0.864,3.281-0.213
			c2.397,1.436,1.731,8.213-0.921,12.101c0.49,1.304,0.99,2.271,2.388,3.972c1.104,1.216,2.762,2.397,3.981,1.592
			c1.149-0.773,2.824,2.578-1.226,2.497C51.05,67.728,48.456,66.373,46.37,61.067z M47.357,49.317
			c-1.149,1.097-1.022,4.814-0.016,8.267c1.864-2.876,1.674-7.672,0.567-8.334C47.747,49.123,47.486,49.203,47.357,49.317z"/>
	</g>
</g>
</svg>
