<?xml version="1.0" encoding="utf-8"?>
<!-- Generator: Adobe Illustrator 16.0.0, SVG Export Plug-In . SVG Version: 6.00 Build 0)  -->
<!DOCTYPE svg PUBLIC "-//W3C//DTD SVG 1.1//EN" "http://www.w3.org/Graphics/SVG/1.1/DTD/svg11.dtd">
<svg version="1.1" id="Layer_1" xmlns="http://www.w3.org/2000/svg" xmlns:xlink="http://www.w3.org/1999/xlink" x="0px" y="0px"
	 width="35px" height="28px" viewBox="0 0 35 28" enable-background="new 0 0 35 28" xml:space="preserve">
<g>
	<path fill="#FFFFFF" d="M17.5,2.239c8.271,0,15,5.075,15,11.312c0,6.237-6.729,11.312-15,11.312c-2.548,0-5.066-0.493-7.283-1.427
		c-0.045-0.019-0.092-0.034-0.139-0.047c-0.126-0.032-0.261-0.049-0.402-0.049c-0.57,0-1.204,0.264-2.082,0.629
		c-1.134,0.472-2.671,1.11-4.257,1.162c0.214-0.238,0.501-0.508,0.708-0.701c0.832-0.779,1.775-1.663,1.777-2.854
		c0.001-0.657-0.289-1.271-0.861-1.825c-1.611-1.846-2.462-3.988-2.462-6.2C2.5,7.314,9.229,2.239,17.5,2.239 M17.5,1.239
		c-8.836,0-16,5.513-16,12.312c0,2.554,1.01,4.926,2.739,6.893c2.344,2.212-3.198,3.837-2.031,5.629
		c0.312,0.043,0.623,0.062,0.929,0.062c2.941,0,5.536-1.794,6.54-1.794c0.056,0,0.107,0.006,0.153,0.018
		c2.278,0.959,4.892,1.505,7.671,1.505c8.837,0,16-5.513,16-12.312S26.337,1.239,17.5,1.239L17.5,1.239z"/>
</g>
<text transform="matrix(1 0 0 1 12.375 20.75)" fill="#FFFFFF" font-family="'Aleo-Regular'" font-size="20">3</text>
</svg>
